<svg xmlns="http://www.w3.org/2000/svg" style="display:none">
<style>:root{--commup-navy:#0B1D3A;--commup-teal:#00B5A8;--commup-orange:#FF8A00;--commup-gray:#64707C;} .navy{stroke:var(--commup-navy,#0B1D3A);} .teal{stroke:var(--commup-teal,#00B5A8);} .orange{stroke:var(--commup-orange,#FF8A00);} .fill-teal{fill:var(--commup-teal,#00B5A8);} .fill-orange{fill:var(--commup-orange,#FF8A00);} .fill-navy{fill:var(--commup-navy,#0B1D3A);} .fill-gray{fill:var(--commup-gray,#64707C);}</style>
<symbol id="commup-01-tag-register" viewBox="0 0 64 64"><g fill="none" stroke-linecap="round" stroke-linejoin="round" stroke-width="3"><path class="navy" d="M9 17v19.5L28.5 56 55 29.5V10H36L9 17Z"/><circle class="navy" cx="43" cy="21" r="4"/><path class="teal" d="M20 30h18M20 39h12"/><path class="teal" d="M47 45h8v8"/></g></symbol><symbol id="commup-02-itrs" viewBox="0 0 64 64"><g fill="none" stroke-linecap="round" stroke-linejoin="round" stroke-width="3"><path class="navy" d="M17 8h22l10 10v38H17V8Z"/><path class="navy" d="M39 8v11h10"/><path class="navy" d="M25 27h16M25 36h12"/><circle class="teal" cx="45" cy="44" r="10"/><path class="teal" d="M40 44l4 4 8-9"/></g></symbol><symbol id="commup-03-punch-list" viewBox="0 0 64 64"><g fill="none" stroke-linecap="round" stroke-linejoin="round" stroke-width="3"><path class="navy" d="M20 13h24v6H20z"/><path class="navy" d="M15 17h34v39H15z"/><path class="navy" d="M25 29h5M25 39h5M25 49h5M37 29h10M37 39h10M37 49h10"/><path class="orange" d="M22.5 38.5l3 3 6-7"/></g></symbol><symbol id="commup-04-certificates" viewBox="0 0 64 64"><g fill="none" stroke-linecap="round" stroke-linejoin="round" stroke-width="3"><path class="navy" d="M16 8h32v38H16z"/><path class="navy" d="M24 20h16M24 29h16"/><circle class="teal" cx="40" cy="42" r="7"/><path class="teal" d="M35 48v9l5-3 5 3v-9"/></g></symbol><symbol id="commup-05-preservation" viewBox="0 0 64 64"><g fill="none" stroke-linecap="round" stroke-linejoin="round" stroke-width="3"><path class="navy" d="M12 46h40M18 46V32h28v14M24 32v-8h16v8"/><circle class="navy" cx="32" cy="32" r="9"/><path class="navy" d="M32 13v10M25 13h14M32 27v5l4 3"/><path class="teal" d="M48 34c3 2 5 5 5 9"/></g></symbol><symbol id="commup-06-kpis" viewBox="0 0 64 64"><g fill="none" stroke-linecap="round" stroke-linejoin="round" stroke-width="3"><path class="navy" d="M10 52h44"/><path class="navy" d="M15 43V31h8v21M29 52V22h8v30M43 52V14h8v38"/><path class="teal" d="M14 24l12-8 12 9 13-15"/><circle class="teal" cx="14" cy="24" r="2"/><circle class="teal" cx="26" cy="16" r="2"/><circle class="teal" cx="38" cy="25" r="2"/><circle class="teal" cx="51" cy="10" r="2"/><path class="orange" d="M47 14v38"/></g></symbol><symbol id="commup-07-dossier" viewBox="0 0 64 64"><g fill="none" stroke-linecap="round" stroke-linejoin="round" stroke-width="3"><path class="navy" d="M8 20h19l5 6h24v26H8z"/><path class="teal" d="M8 30h48"/><path class="navy" d="M14 20v-6h15l4 6"/></g></symbol><symbol id="commup-08-roles-permissions" viewBox="0 0 64 64"><g fill="none" stroke-linecap="round" stroke-linejoin="round" stroke-width="3"><circle class="navy" cx="24" cy="22" r="8"/><path class="navy" d="M10 50c2-10 9-16 17-16 4 0 8 1.5 11 4"/><circle class="navy" cx="43" cy="24" r="7"/><path class="navy" d="M41 37c5 .5 10 5 13 13"/><circle class="teal" cx="42" cy="43" r="7"/><path class="teal" d="M42 33v4M42 49v4M32 43h4M48 43h4M35 36l3 3M46 47l3 3M49 36l-3 3M38 47l-3 3"/></g></symbol><symbol id="commup-09-systems-subsystems" viewBox="0 0 64 64"><g fill="none" stroke-linecap="round" stroke-linejoin="round" stroke-width="3"><path class="navy" d="M32 7l10 6v12l-10 6-10-6V13l10-6Z"/><path class="teal" d="M32 31v9M18 40h28"/><path class="navy" d="M11 42h14v14H11zM25 42h14v14H25zM39 42h14v14H39z"/><path class="teal" d="M18 40v2M32 40v2M46 40v2"/></g></symbol><symbol id="commup-10-mobile-field-execution" viewBox="0 0 64 64"><g fill="none" stroke-linecap="round" stroke-linejoin="round" stroke-width="3"><rect class="navy" x="18" y="6" width="28" height="52" rx="5"/><path class="navy" d="M28 12h8M26 24h12M26 33h8M26 42h10"/><circle class="teal" cx="42" cy="43" r="9"/><path class="teal" d="M37 43l4 4 8-9"/></g></symbol><symbol id="commup-11-qr-nfc-scan" viewBox="0 0 64 64"><g fill="none" stroke-linecap="round" stroke-linejoin="round" stroke-width="3"><path class="navy" d="M12 22v-8h8M44 14h8v8M52 42v8h-8M20 50h-8v-8"/><path class="navy" d="M22 22h8v8h-8zM36 22h6v6h-6zM22 36h6v6h-6zM35 35h4v4h-4zM43 36h3v8h-8v-4"/><path class="teal" d="M46 12c4 2 6 5 7 9M40 10c7 2 12 7 14 14"/></g></symbol><symbol id="commup-12-audit-trail" viewBox="0 0 64 64"><g fill="none" stroke-linecap="round" stroke-linejoin="round" stroke-width="3"><path class="navy" d="M17 8h30v48H17z"/><path class="navy" d="M25 21h14M25 31h12M25 41h8"/><circle class="orange" cx="44" cy="43" r="10"/><path class="orange" d="M44 37v7l5 3"/></g></symbol>
</svg>
