<svg xmlns="http://www.w3.org/2000/svg" viewBox="0 0 128 128" width="128" height="128" fill="none">

  <style>
    .navy { stroke:#0B1D3A; stroke-width:4.2; stroke-linecap:round; stroke-linejoin:round; fill:none; }
    .teal { stroke:#00B5A8; stroke-width:4.2; stroke-linecap:round; stroke-linejoin:round; fill:none; }
    .orange { stroke:#FF6A00; stroke-width:4.2; stroke-linecap:round; stroke-linejoin:round; fill:none; }
    .navyFill { fill:#0B1D3A; stroke:none; }
    .tealFill { fill:#00B5A8; stroke:none; }
    .orangeFill { fill:#FF6A00; stroke:none; }
    .grayFill { fill:#64707C; stroke:none; }
  </style>


  <path class="navy" d="M34 22h40l18 18v56a8 8 0 0 1-8 8H34a8 8 0 0 1-8-8V30a8 8 0 0 1 8-8Z"/>
  <path class="navy" d="M74 22v18h18"/>
  <circle class="teal" cx="48" cy="52" r="3"/>
  <circle class="teal" cx="48" cy="68" r="3"/>
  <circle class="teal" cx="48" cy="84" r="3"/>
  <line class="navy" x1="56" y1="52" x2="78" y2="52"/>
  <line class="navy" x1="56" y1="68" x2="78" y2="68"/>
  <line class="navy" x1="56" y1="84" x2="70" y2="84"/>
  <path class="orange" d="M92 74a16 16 0 1 1-9 14"/>
  <path class="orange" d="M76 88h10v10"/>

</svg>
